<svg version="1.1" id="Layer_1" xmlns="http://www.w3.org/2000/svg" xmlns:xlink="http://www.w3.org/1999/xlink" x="0px" y="0px" viewBox="0 0 473 146" style="enable-background:new 0 0 473 146;" xml:space="preserve">
 <style type="text/css">
  .st0{fill-rule:evenodd;clip-rule:evenodd;fill:#1B242F;}
	.st1{fill:#00A8E1;}
	.st2{fill-rule:evenodd;clip-rule:evenodd;fill:#00A8E1;}
 </style>
 <g>
  <path class="st0" d="M450.4,19.9c7.1,0,12.6,2.2,16.6,6.5c4,4.3,6,10.3,6,17.9c0,7.7-2,13.7-6,18s-9.5,6.5-16.6,6.5
		c-7.1,0-12.6-2.2-16.6-6.5s-6-10.3-6-18c0-7.6,2-13.6,6-17.9C437.7,22,443.3,19.9,450.4,19.9z M450.4,30c-6.3,0-9.4,4.8-9.4,14.3
		c0,9.6,3.1,14.4,9.4,14.4s9.4-4.8,9.4-14.4C459.8,34.7,456.6,30,450.4,30z M403.2,20.3c5.4,0,9.7,1.3,12.7,4
		c3.1,2.7,4.6,6.2,4.6,10.6c0,4.4-1.7,7.8-4.9,10.1c-3.3,2.3-8.2,3.4-14.6,3.4c-3.3,0-6.2-0.3-8.7-1c0.3,4,1.5,6.8,3.5,8.5
		c2,1.7,5.1,2.6,9.2,2.6c1.6,0,3.2-0.1,4.8-0.3c1.5-0.2,3.7-0.7,6.4-1.4c0.2-0.1,0.3-0.1,0.5-0.1c0.2,0,0.3,0,0.4,0
		c1,0,1.5,0.7,1.5,2v4.1c0,0.9-0.1,1.6-0.4,2c-0.3,0.4-0.8,0.7-1.5,1c-4.3,1.6-8.8,2.5-13.6,2.5c-7.2,0-12.8-2-16.7-6
		c-3.9-4-5.8-9.8-5.8-17.3c0-7.7,2-13.7,6-18.1C390.6,22.5,396.1,20.3,403.2,20.3L403.2,20.3z M402.2,29.2c-5.6,0-8.9,3.5-9.7,10.4
		c2.3,0.5,4.9,0.7,7.8,0.7c3,0,5.1-0.5,6.5-1.4c1.3-0.9,2-2.3,2-4.2C408.8,31.1,406.6,29.2,402.2,29.2z M369.1,0.5
		c0.8,0,1.4,0.2,1.7,0.5s0.5,0.9,0.5,1.8v62.3c0,0.8-0.2,1.4-0.5,1.7c-0.3,0.4-0.9,0.5-1.7,0.5h-7.2c-0.7,0-1.3-0.2-1.7-0.5
		c-0.4-0.3-0.7-0.8-0.9-1.5l-0.5-2.1c-3.7,3.4-8.1,5.1-13.2,5.1c-3.9,0-7.2-1-10.1-3c-2.9-2-5.1-4.8-6.6-8.4
		c-1.5-3.6-2.3-7.7-2.3-12.4c0-7.5,1.8-13.4,5.3-17.9c3.5-4.5,8.2-6.7,14-6.7c4.7,0,8.8,1.4,12.3,4.1V2.8c0-0.8,0.2-1.4,0.5-1.8
		s0.9-0.5,1.7-0.5H369.1z M349.4,29.8c-3.2,0-5.5,1.2-7.1,3.6c-1.6,2.4-2.3,6-2.3,10.8c0,4.8,0.8,8.4,2.5,10.7
		c1.6,2.3,4.2,3.5,7.6,3.5c2.9,0,5.6-0.8,8.2-2.5V32.1C355.7,30.5,352.7,29.8,349.4,29.8L349.4,29.8z M307.3,67.4
		c-0.8,0-1.3-0.2-1.7-0.5c-0.4-0.4-0.5-0.9-0.5-1.7V23.5c0-0.8,0.2-1.4,0.5-1.8s0.9-0.5,1.7-0.5h8.6c0.8,0,1.4,0.2,1.7,0.5
		s0.5,0.9,0.5,1.8v41.6c0,0.8-0.2,1.4-0.5,1.7c-0.3,0.4-0.9,0.5-1.7,0.5C315.9,67.4,307.3,67.4,307.3,67.4z M311.6,14.1
		c-2.3,0-4.1-0.6-5.5-1.9s-2.1-3-2.1-5.1c0-2.2,0.7-3.9,2.1-5.1s3.2-1.9,5.5-1.9s4.1,0.6,5.5,1.9s2.1,3,2.1,5.1
		c0,2.2-0.7,3.9-2.1,5.1S313.9,14.1,311.6,14.1z M271.8,67.4c-0.6,0-1.1-0.1-1.5-0.2c-0.4-0.1-0.7-0.4-1-0.7
		c-0.3-0.3-0.5-0.8-0.8-1.4l-15.3-40.2c-0.2-0.4-0.3-0.8-0.4-1.3c-0.1-0.3-0.2-0.7-0.2-1c0-0.9,0.6-1.4,1.8-1.4h8.9
		c1,0,1.7,0.2,2.1,0.5c0.4,0.4,0.8,1,1,1.8l9.2,32l9.4-32c0.2-0.8,0.6-1.4,1-1.8c0.4-0.4,1.1-0.5,2.1-0.5h8.7c1.2,0,1.8,0.5,1.8,1.4
		c0,0.3-0.1,0.6-0.2,1c-0.1,0.4-0.3,0.8-0.4,1.3L282.8,65c-0.2,0.6-0.5,1.1-0.8,1.4c-0.2,0.3-0.6,0.6-0.9,0.7
		c-0.4,0.2-0.9,0.2-1.5,0.2H271.8L271.8,67.4z">
  </path>
 </g>
 <path class="st1" d="M229.1,56.9c-0.1,0-0.3,0-0.4,0c-0.2,0-0.4,0.1-0.5,0.1c-2.8,0.7-5,1.2-6.6,1.4c-1.6,0.2-3.2,0.3-4.9,0.3
	c-4.2,0-7.3-0.9-9.4-2.6c-2.1-1.7-3.3-4.6-3.6-8.7c2.5,0.7,5.5,1,8.9,1c6.6,0,11.6-1.2,15-3.5c3.4-2.3,5.1-5.7,5.1-10.3
	c0-4.5-1.6-8.1-4.7-10.8c-3.1-2.7-7.5-4.1-13.1-4.1l0,0c-7.2,0-12.9,2.2-17,6.7c-4.1,4.5-6.1,10.6-6.1,18.4c0,7.7,2,13.5,6,17.6
	c4,4.1,9.7,6.1,17.1,6.1c4.9,0,9.6-0.8,13.9-2.5c0.8-0.3,1.3-0.6,1.6-1c0.3-0.4,0.4-1.1,0.4-2V59C230.6,57.6,230.1,56.9,229.1,56.9z
	 M213.7,29c4.5,0,6.7,1.9,6.7,5.7c0,1.9-0.7,3.4-2.1,4.3c-1.4,0.9-3.6,1.4-6.6,1.4c-2.9,0-5.6-0.2-8-0.7C204.7,32.6,208,29,213.7,29
	z">
 </path>
 <path class="st2" d="M126,25.7c3.2-2.1,6-3.6,8.6-4.5c2.5-0.9,5.2-1.3,7.9-1.3c5.4,0,9.2,1.9,11.4,5.8c3.1-2,5.9-3.5,8.6-4.4
	c2.7-0.9,5.5-1.4,8.4-1.4c4.2,0,7.4,1.2,9.8,3.5c2.3,2.4,3.5,5.6,3.5,9.8v31.9c0,0.8-0.2,1.4-0.5,1.7c-0.3,0.4-0.9,0.5-1.8,0.5h-8.6
	c-0.8,0-1.3-0.2-1.7-0.5c-0.4-0.4-0.5-0.9-0.5-1.7v-29c0-4.1-1.8-6.1-5.5-6.1c-3.2,0-6.5,0.8-9.8,2.3v32.8c0,0.8-0.2,1.4-0.5,1.7
	c-0.3,0.4-0.9,0.5-1.8,0.5h-8.6c-0.8,0-1.3-0.2-1.7-0.5c-0.4-0.4-0.5-0.9-0.5-1.7v-29c0-4.1-1.8-6.1-5.5-6.1c-3.4,0-6.6,0.8-9.9,2.4
	v32.7c0,0.8-0.2,1.4-0.5,1.7c-0.3,0.4-0.9,0.5-1.7,0.5h-8.6c-0.8,0-1.3-0.2-1.7-0.5c-0.4-0.4-0.5-0.9-0.5-1.7V23.5
	c0-0.8,0.2-1.4,0.5-1.8c0.4-0.3,0.9-0.5,1.7-0.5h6.5c1.4,0,2.2,0.7,2.5,2L126,25.7L126,25.7z">
 </path>
 <path class="st2" d="M89.8,23.5c0-0.8,0.2-1.4,0.5-1.8c0.4-0.3,0.9-0.5,1.7-0.5h8.6c0.8,0,1.4,0.2,1.8,0.5c0.3,0.3,0.5,0.9,0.5,1.8
	v41.6c0,0.8-0.2,1.4-0.5,1.7c-0.3,0.4-0.9,0.5-1.8,0.5h-8.6c-0.8,0-1.3-0.2-1.7-0.5c-0.4-0.4-0.5-0.9-0.5-1.7V23.5z">
 </path>
 <path class="st2" d="M96.4,14.1c-2.3,0-4.1-0.6-5.5-1.9c-1.4-1.3-2.1-3-2.1-5.2c0-2.2,0.7-3.9,2.1-5.1C92.3,0.6,94.1,0,96.4,0
	c2.3,0,4.1,0.6,5.5,1.9c1.4,1.3,2.1,3,2.1,5.1c0,2.2-0.7,3.9-2.1,5.2C100.5,13.5,98.7,14.1,96.4,14.1z">
 </path>
 <path class="st2" d="M66.3,28.1c2.4-2.6,4.7-4.5,6.8-5.6c2.1-1.1,4.4-1.7,6.8-1.7h1.3c0.8,0,1.4,0.2,1.8,0.5
	c0.4,0.3,0.5,0.9,0.5,1.8v7.6c0,0.8-0.2,1.4-0.5,1.7c-0.3,0.4-0.9,0.5-1.7,0.5c-0.4,0-1,0-1.6-0.1c-0.8-0.1-1.7-0.1-2.5-0.1
	c-1.4,0-3.1,0.2-5,0.6c-2,0.4-3.7,0.9-5,1.5v30.3c0,0.8-0.2,1.4-0.5,1.7c-0.3,0.4-0.9,0.5-1.8,0.5h-8.6c-0.8,0-1.3-0.2-1.7-0.5
	c-0.4-0.4-0.5-0.9-0.5-1.7V23.5c0-0.8,0.2-1.4,0.5-1.8c0.4-0.3,0.9-0.5,1.7-0.5h6.5c1.4,0,2.2,0.7,2.5,2
	C65.2,23.2,66.3,28.1,66.3,28.1z">
 </path>
 <path class="st1" d="M40,26.3c-3.4-4.3-8-6.4-13.8-6.4c-2.6,0-5.2,0.5-7.8,1.5c-2.5,1-4.7,2.4-6.5,4.2l-0.6-2.3
	c-0.3-1.3-1.1-2-2.5-2H2.3c-0.8,0-1.3,0.2-1.7,0.5c-0.4,0.3-0.5,0.9-0.5,1.8v60.2c0,0.8,0.2,1.4,0.5,1.8C1,85.8,1.6,86,2.3,86H11
	c0.8,0,1.4-0.2,1.8-0.5c0.3-0.3,0.5-0.9,0.5-1.8V64c1.6,1.4,3.4,2.5,5.7,3.2c2.2,0.8,4.6,1.2,7,1.2c3.7,0,7-1,9.9-3
	c2.9-2,5.2-4.9,6.8-8.6c1.7-3.7,2.5-8.1,2.5-13.1C45.1,36.3,43.4,30.6,40,26.3z M29.4,55c-1.6,2.3-4.1,3.4-7.4,3.4
	c-3.2,0-6.2-0.8-8.8-2.4V32.2c2.8-1.6,5.7-2.4,8.8-2.4c3.4,0,5.9,1.1,7.5,3.4s2.3,5.9,2.3,10.9C31.8,49.1,31,52.7,29.4,55z">
 </path>
 <g>
  <path class="st2" d="M114.8,92.4c0.2-1,1-1.8,2.1-1.8c0.5,0,1.1,0.2,1.7,0.6c34.7,21.8,77.7,34.9,122.1,34.9
		c29.9,0,62.8-6.7,93.1-20.5c4.6-2.1,8.4,3.2,3.9,6.8c-27,21.5-66.2,32.9-99.9,32.9c-47.2,0-89.8-18.8-122-50.2
		c-0.6-0.6-1-1.3-1.1-1.9V92.4z">
  </path>
  <path class="st2" d="M315.5,95.8c8-6,18.6-8,27.4-8c8.2,0,14.9,1.8,16.3,3.6c3,3.9-0.8,31.2-15.3,44.2c-2.2,2-4.3,0.9-3.4-1.7
		c3.3-8.7,10.6-28.3,7.1-33.1c-3.5-4.8-22.8-2.3-31.5-1.1c-1.3,0.2-2.1-0.4-2.2-1.2V98C314,97.3,314.5,96.5,315.5,95.8z">
  </path>
 </g>
</svg>